<?xml version="1.0" encoding="utf-8"?>
<!-- Generator: Adobe Illustrator 22.0.1, SVG Export Plug-In . SVG Version: 6.00 Build 0)  -->
<svg version="1.1" xmlns="http://www.w3.org/2000/svg" xmlns:xlink="http://www.w3.org/1999/xlink" x="0px" y="0px"
	 viewBox="0 0 244.7 252.4" style="enable-background:new 0 0 244.7 252.4;" xml:space="preserve">
<style type="text/css">
	.st0{fill:#D19803;}
	.st1{fill:#790B28;}
	.st2{fill:#7D7777;}
	.st3{fill:#7F7A78;}
	.st4{fill:#2C2A2A;}
	.st5{fill:#FCE9B9;}
	.st6{fill:#FEEBBA;}
	.st7{fill:#E8E5D5;}
	.st8{fill:#EDBB85;}
	.st9{fill:#DBD9CB;}
	.st10{fill:#090909;}
	.st11{display:none;}
	.st12{display:inline;}
</style>
<g id="Capa_1">
	<g>
		<polyline points="134.5,67.7 133.7,67.7 132.6,67.1 131.7,66.7 131.5,66.6 128.7,66.7 128.7,65.7 133.4,65.7 133.4,66.5 
			135.5,66.5 135.5,68.6 		"/>
		<line x1="134.7" y1="68.6" x2="134.5" y2="67.7"/>
		<line x1="135.5" y1="68.6" x2="134.7" y2="68.6"/>
		<line x1="133.7" y1="67.7" x2="133.7" y2="68.2"/>
		<polyline points="132.4,68.6 131.5,68.6 131.5,66.6 133.7,67.7 		"/>
		<line x1="133.7" y1="68.6" x2="132.4" y2="68.6"/>
		<line x1="133.7" y1="68.2" x2="133.7" y2="68.6"/>
		<polygon points="133.4,65.7 134,65.8 134.7,66.1 135.5,66.5 133.4,66.5 		"/>
	</g>
	<g>
		<polyline points="134.5,67.7 133.7,67.7 132.6,67.1 131.7,66.7 131.5,66.6 128.7,66.7 128.7,65.7 133.4,65.7 133.4,66.5 
			135.5,66.5 135.5,68.6 		"/>
		<line x1="134.7" y1="68.6" x2="134.5" y2="67.7"/>
		<line x1="135.5" y1="68.6" x2="134.7" y2="68.6"/>
		<line x1="133.7" y1="67.7" x2="133.7" y2="68.2"/>
		<polyline points="132.4,68.6 131.5,68.6 131.5,66.6 133.7,67.7 		"/>
		<line x1="133.7" y1="68.6" x2="132.4" y2="68.6"/>
		<line x1="133.7" y1="68.2" x2="133.7" y2="68.6"/>
		<polygon points="133.4,65.7 134,65.8 134.7,66.1 135.5,66.5 133.4,66.5 		"/>
	</g>
	<g>
		<polyline points="134.5,67.7 133.7,67.7 132.6,67.1 131.7,66.7 131.5,66.6 128.7,66.7 128.7,65.7 133.4,65.7 133.4,66.5 
			135.5,66.5 135.5,68.6 		"/>
		<line x1="134.7" y1="68.6" x2="134.5" y2="67.7"/>
		<line x1="135.5" y1="68.6" x2="134.7" y2="68.6"/>
		<line x1="133.7" y1="67.7" x2="133.7" y2="68.2"/>
		<polyline points="132.4,68.6 131.5,68.6 131.5,66.6 133.7,67.7 		"/>
		<line x1="133.7" y1="68.6" x2="132.4" y2="68.6"/>
		<line x1="133.7" y1="68.2" x2="133.7" y2="68.6"/>
		<polygon points="133.4,65.7 134,65.8 134.7,66.1 135.5,66.5 133.4,66.5 		"/>
	</g>
	<g>
		<polyline points="134.5,67.7 133.7,67.7 132.6,67.1 131.7,66.7 131.5,66.6 128.7,66.7 128.7,65.7 133.4,65.7 133.4,66.5 
			135.5,66.5 135.5,68.6 		"/>
		<line x1="134.7" y1="68.6" x2="134.5" y2="67.7"/>
		<line x1="135.5" y1="68.6" x2="134.7" y2="68.6"/>
		<line x1="133.7" y1="67.7" x2="133.7" y2="68.2"/>
		<polyline points="132.4,68.6 131.5,68.6 131.5,66.6 133.7,67.7 		"/>
		<line x1="133.7" y1="68.6" x2="132.4" y2="68.6"/>
		<line x1="133.7" y1="68.2" x2="133.7" y2="68.6"/>
		<polygon points="133.4,65.7 134,65.8 134.7,66.1 135.5,66.5 133.4,66.5 		"/>
	</g>
	<g>
		<polyline points="134.5,67.7 133.7,67.7 132.6,67.1 131.7,66.7 131.5,66.6 128.7,66.7 128.7,65.7 133.4,65.7 133.4,66.5 
			135.5,66.5 135.5,68.6 		"/>
		<line x1="134.7" y1="68.6" x2="134.5" y2="67.7"/>
		<line x1="135.5" y1="68.6" x2="134.7" y2="68.6"/>
		<line x1="133.7" y1="67.7" x2="133.7" y2="68.2"/>
		<polyline points="132.4,68.6 131.5,68.6 131.5,66.6 133.7,67.7 		"/>
		<line x1="133.7" y1="68.6" x2="132.4" y2="68.6"/>
		<line x1="133.7" y1="68.2" x2="133.7" y2="68.6"/>
		<polygon points="133.4,65.7 134,65.8 134.7,66.1 135.5,66.5 133.4,66.5 		"/>
	</g>
	<g>
		<polyline points="134.5,67.7 133.7,67.7 132.6,67.1 131.7,66.7 131.5,66.6 128.7,66.7 128.7,65.7 133.4,65.7 133.4,66.5 
			135.5,66.5 135.5,68.6 		"/>
		<line x1="134.7" y1="68.6" x2="134.5" y2="67.7"/>
		<line x1="135.5" y1="68.6" x2="134.7" y2="68.6"/>
		<line x1="133.7" y1="67.7" x2="133.7" y2="68.2"/>
		<polyline points="132.4,68.6 131.5,68.6 131.5,66.6 133.7,67.7 		"/>
		<line x1="133.7" y1="68.6" x2="132.4" y2="68.6"/>
		<line x1="133.7" y1="68.2" x2="133.7" y2="68.6"/>
		<polygon points="133.4,65.7 134,65.8 134.7,66.1 135.5,66.5 133.4,66.5 		"/>
	</g>
	<g>
		<polyline points="134.5,67.7 133.7,67.7 132.6,67.1 131.7,66.7 131.5,66.6 128.7,66.7 128.7,65.7 133.4,65.7 133.4,66.5 
			135.5,66.5 135.5,68.6 		"/>
		<line x1="134.7" y1="68.6" x2="134.5" y2="67.7"/>
		<line x1="135.5" y1="68.6" x2="134.7" y2="68.6"/>
		<line x1="133.7" y1="67.7" x2="133.7" y2="68.2"/>
		<polyline points="132.4,68.6 131.5,68.6 131.5,66.6 133.7,67.7 		"/>
		<line x1="133.7" y1="68.6" x2="132.4" y2="68.6"/>
		<line x1="133.7" y1="68.2" x2="133.7" y2="68.6"/>
		<polygon points="133.4,65.7 134,65.8 134.7,66.1 135.5,66.5 133.4,66.5 		"/>
	</g>
	<g>
		<polyline points="134.5,67.7 133.7,67.7 132.6,67.1 131.7,66.7 131.5,66.6 128.7,66.7 128.7,65.7 133.4,65.7 133.4,66.5 
			135.5,66.5 135.5,68.6 		"/>
		<line x1="134.7" y1="68.6" x2="134.5" y2="67.7"/>
		<line x1="135.5" y1="68.6" x2="134.7" y2="68.6"/>
		<line x1="133.7" y1="67.7" x2="133.7" y2="68.2"/>
		<polyline points="132.4,68.6 131.5,68.6 131.5,66.6 133.7,67.7 		"/>
		<line x1="133.7" y1="68.6" x2="132.4" y2="68.6"/>
		<line x1="133.7" y1="68.2" x2="133.7" y2="68.6"/>
		<polygon points="133.4,65.7 134,65.8 134.7,66.1 135.5,66.5 133.4,66.5 		"/>
	</g>
	<path class="st0" d="M5,130.8C3.7,65.4,58.3,11,124,10.9c65.4,0,119.4,54.2,119.3,119.8C243.2,195.5,190.4,249.9,124,250
		C57.7,250,4,195.5,5,130.8z M155.1,49.1c-5.4-5.7-12.3-5-19.2-4.3c-2.2-3.6-4.2-3.4-6,0.4c-0.6,1.2-1.3,2.2-2,3.3
		c-5.1,0.5-9.7-0.7-14.5-2.6c-8.9-3.6-18-2-22.9,6.1c-4.3,7.1-10.5,9.7-18.2,10.5c-9.5,1-15.5,6.9-16.4,16.5
		c-0.7,7.8-3.6,14.1-10.5,18.2c-8.4,5-9.5,16.2-5.9,23.4c3.4,6.8,3.3,13.3-0.1,20.1c-4.1,8.1-2.1,18,5.4,22.8
		c7.4,4.7,10.3,11.2,11.2,19.4c1,9,7.2,14.8,16.1,15.8c4.8,0.5,9.7,1.2,13.5,4.5c2.5,2.1,4.3,5,6.4,7.5c0,1.3,0.4,2.2,1.9,2.1
		c2.2,2.3,4.8,3.8,8,3.8c6.8,1.4,13.5,1.3,20.2-0.3c0.6,0,1.1,0,1.7,0c2,0.1,3.9,0.1,5.9,0.3c1.1,0.1,2.8-0.5,3,0.9
		c0.8,4.3,3.7,2.7,6.1,2.4c6.1-0.9,11.7-3.6,17.7-4.9c1.4-0.3,4.7-2.2,4.2,1.6c-0.6,4.4,1.6,3.1,3.6,2.2c5.7-2.6,11.1-6,16.1-9.9
		c10.5-8.2,15.9-18.5,12.3-32.1c1.5-5.3,4.5-9.4,9.4-12.3c8.5-5.1,10.2-15.2,6.3-23.7c-3.1-6.9-3.2-13.2,0-20.1
		c3.8-8.2,2.4-18.5-5.8-23.4c-7.3-4.3-9.8-10.7-10.6-18.6c-0.8-8.9-7.2-15.1-16.2-16.1c-4.5-0.5-8.9-1.2-12.7-3.9
		c-0.1-1.5-0.1-2.9-0.3-4.4C162.2,47.4,161.4,46.9,155.1,49.1z"/>
	<path class="st1" d="M92,210.6c-2.1-2.5-4-5.4-6.4-7.5c-3.8-3.3-8.7-4-13.5-4.5c-8.9-1-15.1-6.8-16.1-15.8
		c-0.9-8.2-3.8-14.7-11.2-19.4c-7.5-4.8-9.5-14.6-5.4-22.8c3.4-6.8,3.5-13.2,0.1-20.1c-3.6-7.2-2.5-18.4,5.9-23.4
		c6.9-4.1,9.8-10.5,10.5-18.2c0.9-9.6,6.9-15.5,16.4-16.5C80,61.7,86.3,59.1,90.6,52c4.9-8.1,14.1-9.8,22.9-6.1
		c4.8,2,9.4,3.1,14.5,2.6c-2.5,7.4-6.4,13.7-13.7,17.4c-2.4,1.2-6.6,0.6-7,3.7c-0.5,3.7,4.5,3.1,6.2,5.4c-0.4,1.4-1.7,1.8-2.7,2.6
		c-1.1,0.8-2.8,1.4-2.3,3.6c0.9,0.1,1.9,0.2,2.9,0.4c1.1,0.2,2.2,0.4,3,1.4c-3.9,5-3.9,5,1.3,9.2c0.1,0.1,0.2,0.3,0.3,0.4
		c-0.3,1-0.7,2.1-1,3.1c-7,1.8-12.4,6.3-17.3,11c-3.5,3.5-6.2,4.2-9.8,0.8c0,0,0,0,0,0c0-0.9-0.2-1.6-1.1-2c-3.3-3.9-6.6-8-10-11.8
		c-3.1-3.5-6.5-6.5-11.3-7.9c-3.9-1.1-5,3.3-7.4,3.3c-6.7,0.3-2.7,5.4-4,8c-1.1,2.4,1.9,3.4,3.7,4.5c1.7,1,3.5,1.3,5.3,1
		c3.6-0.6,5.7,1.1,7.1,4.1c2.3,5,4.5,10,6.7,15c-0.4,1.9,0.5,3.6,1.2,5.2c4.3,11.1,6.9,11.9,17.2,5.9c5.9-3.4,11.2-7.8,17.5-10.4
		c0,7.6-3.5,14.6-4.1,22.2c-2,7.7-4.5,15.3-8,22.4c-6.1,10.1-3.1,19,8.1,24c-2.6,1.3-5.3,2.5-7.8,4c-3.6,2.2-3.5,3.3,0.2,5.6
		C98.4,204,94.6,206.7,92,210.6z"/>
	<path class="st1" d="M163.1,58.5c3.8,2.7,8.2,3.4,12.7,3.9c9,1,15.4,7.2,16.2,16.1c0.7,7.8,3.3,14.2,10.6,18.6
		c8.2,4.9,9.6,15.2,5.8,23.4c-3.2,6.9-3.1,13.2,0,20.1c3.8,8.5,2.2,18.6-6.3,23.7c-4.9,2.9-7.8,7-9.4,12.3
		c-3.6-5.8-8.4-9.7-15.7-9.2c0.6-9.7-1.4-19.2-2-28.7c-0.9-13.6-3.5-26.9-6.8-40.1c-0.7-2.6-1.7-4.7-4.3-5.6c3.4-2,5.6-4.3,2.7-8.3
		c-0.7-1-0.3-2,0.8-2.4c4.7-1.5,3.2-4.2,0.9-6.7c7.5-4.3,7.5-5.1,0.4-9.9c-1.1-0.7-2.2-1.6-3.3-2.2
		C163.3,62.4,162.7,60.8,163.1,58.5z"/>
	<path class="st2" d="M177.1,167.4c7.3-0.4,12.1,3.4,15.7,9.2c3.6,13.7-1.8,23.9-12.3,32.1c-5,3.9-10.3,7.2-16.1,9.9
		c-2,0.9-4.2,2.2-3.6-2.2c0.5-3.8-2.8-1.9-4.2-1.6c-6,1.3-11.6,4-17.7,4.9c-2.5,0.4-5.3,1.9-6.1-2.4c-0.3-1.4-2-0.8-3-0.9
		c-2-0.2-3.9-0.2-5.9-0.3c0.8-1.2,2.6,0.1,3.4-1.3c-3.3-0.8-6.5-1.5-9.9-2.3c0.8,2.9,4.4,0.9,4.9,3.7c-6.7,1.6-13.5,1.7-20.2,0.3
		c-0.5-2.2,3.8-3.8,1-6c-2.3-1.8-4.6,0.4-6.9,1.1c-0.8,0.2-1.4,0.8-2.2,1.2c-1.5,0.1-1.9-0.8-1.9-2.1c2.6-3.8,6.3-6.6,9.5-10
		c-3.8-2.3-3.9-3.3-0.2-5.6c2.5-1.5,5.2-2.7,7.8-4c3-0.9,5.9-1.8,8.9-2.8c8.7-1.1,17.2-2.9,26-2.8c9.4,1.4,15.6-3.3,20.2-10.9
		c0.6-0.7,1.2-1.3,1.7-2C169,169.5,172.6,167.4,177.1,167.4z M134.2,194.3c-0.3-0.3-0.7-0.6-1-1c0.2-2.7,2.3-1.8,3.7-1.9
		c2.8-0.3,5.6-0.3,8.5-0.4c0-0.4,0-0.9-0.1-1.3c-3.6-0.1-7.2-0.4-10.9,0.4c-2,0.5-3.5,1.4-1.7,3.7c0.3,0.3,0.7,0.7,1,1
		c0.4,0.3,0.7,0.6,1.1,0.9c0.6,0.4,1.3,0.7,1.9,1.1c0.4,0.1,0.7,0.3,1.1,0.4c-0.2-0.3-0.4-0.6-0.6-0.9c-0.6-0.4-1.3-0.7-1.9-1.1
		C134.9,194.9,134.6,194.6,134.2,194.3z M143.8,201.7c0.3,0.1,0.6,0.3,0.9,0.4c-0.1-0.3-0.2-0.7-0.4-1c-0.4-0.3-0.7-0.7-1.1-1
		c-1-1.6-2.4-2.3-4.4-2.5c0.9,2,2.4,2.5,3.9,3C143.2,201.1,143.5,201.4,143.8,201.7z M114.7,211.8c0.3,0.1,0.7,0.3,1,0.4
		c-0.2-0.3-0.4-0.5-0.6-0.8c-0.3-0.6-1-1.1-1.3-0.5C113.4,211.6,114.3,211.6,114.7,211.8z M166.3,199.9c1.2-0.3,2.8,0.1,3.3-1.9
		c-3.3-1.8-6.6-1.2-10.9-1.4c2.5,3,5.4,1,7.1,2.8c-1.4,0.1-2.8,0.3-3.7,1.8C164.1,201.8,165.2,200.8,166.3,199.9z M162,204.7
		c4.7,3.4,8.9,0.6,13,0C170.9,204.7,166.8,204.7,162,204.7z M114.7,200.8c-0.7,3.6,7-1,4.1,4.7c0.3,0,0.6,0,0.9-0.1
		c1.1-0.2,2.4-0.2,2.8-1.6c0.4-1.6-0.9-2.2-2-2.2C118.5,201.5,116.6,199.9,114.7,200.8z M161.1,202.9c-0.2-0.4-0.3-0.7-0.5-0.9
		c-0.2,0.3-0.6,0.7-0.6,1c0,0.3,0.4,0.7,0.6,1C160.8,203.7,161,203.2,161.1,202.9z M112.5,200.3c0.1-0.1,0.2-0.2,0.3-0.3
		c-0.1-0.1-0.2-0.3-0.3-0.3c-0.1,0-0.2,0.2-0.3,0.3C112.3,200.1,112.4,200.2,112.5,200.3z"/>
	<path class="st3" d="M163.1,58.5c-0.5,2.2,0.2,3.9,2.3,5c1.2,0.6,2.2,1.5,3.3,2.2c7.1,4.8,7.1,5.6-0.4,9.9c2.3,2.5,3.8,5.2-0.9,6.7
		c-1.2,0.4-1.6,1.3-0.8,2.4c2.8,4,0.7,6.3-2.7,8.3c-0.9,0.2-1.8,0.5-2.8,0.7c-3.9,2.9-9,2.6-13.1,4.9c-6,1.7-12,1.9-18.1,0.4
		c-5.1-1.3-9.4-4.1-13.9-6.5c-0.1-0.1-0.2-0.3-0.3-0.4c-5.2-4.2-5.2-4.2-1.3-9.2c-0.8-0.9-1.9-1.2-3-1.4c-1-0.1-1.9-0.2-2.9-0.4
		c-0.5-2.2,1.1-2.7,2.3-3.6c1-0.8,2.4-1.2,2.7-2.6c-1.8-2.3-6.8-1.7-6.2-5.4c0.4-3.1,4.6-2.5,7-3.7c7.3-3.7,11.2-10,13.7-17.4
		c0.7-1.1,1.4-2.2,2-3.3c1.8-3.8,3.8-4,6-0.4c1.2,2.8,1.6,6.7,5,7.3c4.9,0.9,10.2,1.6,14.1-3c6.3-2.2,7.1-1.6,7.8,5.1
		C163,55.6,163.1,57.1,163.1,58.5z M128,72.5c-6.6,1.3-8.9,5.3-6.3,11c1.1,2.4,2.4,4.7,3.5,7.2c1.8,4.3,7.6,1.8,9.6,5.7
		c0,0,0.4,0,0.5-0.1c2.8-3.4,6.3-2.5,9.9-1.9c1.6,0.3,3.1-0.9,4.3-2.1c2.9-2.8,5.7-5.6,8.6-8.3c3.8-3.6-0.2-6.2-1.5-8.6
		c-1.5-2.9-3.4,0.2-4.8,1c-5.1,3.4-5.1,3.6-8.4-1.9c-1.9-3.3-3.9-5-7.2-1.7c0.4-1.6,1-3.1,1.3-4.8c0.4-2.4-0.1-4.7-2.3-6.1
		c-2.1-1.4-4-0.1-5.9,1C125,65.6,126.3,69,128,72.5z M155,69.1c-0.5-3.1-2.1-5.4-4.9-6.3c-2.2-0.7-6.3,3.5-6.1,6.1
		c0.2,3,1.7,6.2,4.6,6.2C151.7,75.1,154.2,72.6,155,69.1z M132.5,54.6c2.1,0.1,3.8-0.2,3.4-2.8c-0.3-2.1-0.8-5-3.2-4.9
		c-2.4,0.2-3.1,3.2-3.5,5.4C128.8,54.9,131,54.5,132.5,54.6z M157.8,51.4c-1.3,0.7-4.2,0.8-4.3,3.2c-0.1,2.2,2.3,3.8,4.4,3.7
		c2.5-0.1,2.2-2.9,2.7-4.6C161.1,52.1,160.2,51.2,157.8,51.4z"/>
	<path class="st1" d="M155.1,49.1c-3.9,4.6-9.2,3.9-14.1,3c-3.5-0.6-3.8-4.5-5-7.3C142.8,44,149.7,43.4,155.1,49.1z"/>
	<path class="st1" d="M94,212.6c0.7-0.4,1.4-0.9,2.2-1.2c2.3-0.7,4.6-2.9,6.9-1.1c2.8,2.2-1.5,3.8-1,6
		C98.7,216.4,96.2,214.9,94,212.6z"/>
	<path class="st4" d="M122.2,216.1c-0.5-2.8-4.1-0.8-4.9-3.7c3.4,0.8,6.6,1.5,9.9,2.3c-0.7,1.5-2.6,0.1-3.4,1.3
		C123.3,216.1,122.8,216.1,122.2,216.1z"/>
	<path class="st5" d="M161.1,93.7c0.9-0.2,1.8-0.5,2.8-0.7c2.6,1,3.7,3.1,4.3,5.6c3.4,13.2,5.9,26.5,6.8,40.1
		c0.7,9.6,2.6,19.1,2,28.7c-4.5,0-8.1,2-11.1,5.2c-1.6-2.1-0.5-4.3-0.4-6.6c0.2-6.2,2.3-12.7-1.5-18.6c-0.3-0.3-0.7-0.7-1-1
		c-0.3-0.3-0.6-0.5-1-0.8c-0.1,0.2-0.2,0.3-0.4,0.5c0.4,0.1,0.8,0.2,1.2,0.4c0.3,0.3,0.7,0.7,1,1c0.1,9,0.2,18,0.3,27
		c-4.6,7.6-10.8,12.3-20.2,10.9c3.8-5.7,6.7-11.8,6-19c2.7-10,6.7-19.5,10.4-29c2.8-7.1,5.7-14.2,8-21.4c1.2-3.7,2.2-8-2.5-10.6
		c-3.7-2-9.8-0.7-12.8,2.8c-2.3,2.7-4.1,5.7-5.2,9c-2.5,7.5-5,15.1-7.5,22.7c-6.7-0.9-13.5-0.7-20.3-0.2c-3.2,0.2-7.1,0.2-9.2,3.8
		l0,0c-0.7,0.3-1.4,0.7-2.1,1c0.7-7.5,4.2-14.5,4.1-22.2c3.8-8.7,5.8-17.5,2-26.7c0.3-1,0.7-2.1,1-3.1c4.5,2.4,8.7,5.2,13.9,6.5
		c6.2,1.5,12.1,1.3,18.1-0.4c4.1,1.2,8,0,11.8-1.1C161.8,97,162.4,95.6,161.1,93.7z M120,135.5c1.8-5.6,3.5-11.3,2.8-17.2
		c-0.5,0-0.9-0.1-1.4-0.1C121,123.9,120.5,129.7,120,135.5z M145.2,115.4c2.1-4.9,1.7-9.1,1.8-13.3
		C145.3,106,144.6,110.1,145.2,115.4z"/>
	<path class="st6" d="M118,188.3c-3,0.9-5.9,1.8-8.9,2.8c-11.2-5.1-14.2-14-8.1-24c1.1,1.6,1.3,1.6,3.9-0.5
		c2.1,10.3,2.4,10.9,6.9,14.1c-6.4-9.8-5.1-19.1-2.7-28.4c0.7-2.9,1.3-5.8,1.9-8.7c0,0,0,0,0,0c9.6-2.9,19.4-3.1,29.2-3.1
		c-2,8-4,16-6,24c-1.6,1.2-1.8,3.1-2.2,4.8c-1.5,6.3-5.4,10.9-10.2,14.8C120.2,185.2,118.3,186,118,188.3z"/>
	<path class="st2" d="M115,95.7c3.8,9.2,1.8,18-2,26.7c-6.3,2.7-11.6,7.1-17.5,10.4c-10.3,5.9-12.9,5.2-17.2-5.9
		c-0.6-1.7-1.6-3.3-1.2-5.3c1.2,0.4,3,2.2,3,1.7c0-3.2,5.3-4.8,2.7-8.7c0.2-0.2,0.4-0.3,0.6-0.5c5.9,0.1,0.5-3.1,1.3-4.4
		c0.3-0.3,0.6-0.5,0.8-0.8c1.3,0.4,2.2,0.1,2.4-1.4c3.6,3.4,6.2,2.7,9.8-0.8C102.6,101.9,108.1,97.5,115,95.7z"/>
	<path class="st7" d="M82.9,114.6c2.7,3.9-2.6,5.4-2.7,8.7c0,0.5-1.9-1.3-3-1.7c-2.2-5-4.4-10-6.7-15c-1.4-3-3.5-4.7-7.1-4.1
		c-1.8,0.3-3.7,0-5.3-1c-1.8-1.1-4.9-2.1-3.7-4.5c1.2-2.6-2.7-7.7,4-8c2.4-0.1,3.5-4.5,7.4-3.3c4.7,1.4,8.1,4.5,11.3,7.9
		c3.5,3.8,6.7,7.9,10,11.8c0.2,0.8,0.2,1.6,1.1,2c0,0,0,0,0,0c-0.2,1.5-1.1,1.9-2.4,1.4c-0.4-0.4-0.6-1.4-1.3-0.8
		c-0.5,0.4,0,1.2,0.5,1.6c-0.8,1.3,4.6,4.5-1.3,4.4c-0.3-0.4-0.4-1.4-1.1-0.9C81.9,113.6,82.3,114.3,82.9,114.6z"/>
	<path class="st8" d="M111,143.5c-0.6,2.9-1.2,5.8-1.9,8.7c-2.4,9.3-3.7,18.5,2.7,28.4c-4.5-3.2-4.8-3.8-6.9-14.1
		c-2.6,2-2.8,2.1-3.9,0.5c3.5-7.2,5.9-14.7,8-22.5C109.6,144.2,110.3,143.9,111,143.5z"/>
	<path class="st2" d="M88,107.6c-0.9-0.4-0.9-1.2-1.1-2C87.8,106,88,106.7,88,107.6z"/>
	<path class="st7" d="M118,188.3c0.3-2.3,2.3-3,3.8-4.3c4.9-3.9,8.7-8.5,10.2-14.8c0.4-1.7,0.6-3.6,2.2-4.8c4.7-3.2,3.4,2.7,5.6,3.7
		c1-1,1.9-2.1,3-3.1c1-1,2.5-1.2,2.7,0.3c0.7,3.9,2.9,1.1,4.4,1.2c0.7,7.2-2.2,13.2-6,19C135.2,185.4,126.7,187.2,118,188.3z"/>
	<path class="st8" d="M164.1,147.5c3.8,5.9,1.7,12.3,1.5,18.6c-0.1,2.2-1.2,4.4,0.4,6.6c-0.6,0.7-1.2,1.3-1.7,2
		c-0.1-9-0.2-18-0.2-27C163.9,147.6,164.1,147.5,164.1,147.5z"/>
	<path class="st4" d="M132.7,193.8c-1.8-2.3-0.3-3.2,1.7-3.7c3.6-0.8,7.2-0.5,10.9-0.4c0,0.4,0,0.9,0.1,1.3
		c-2.8,0.1-5.6,0.1-8.5,0.4c-1.4,0.1-3.6-0.8-3.7,1.9C133,193.5,132.9,193.7,132.7,193.8z"/>
	<path class="st4" d="M165.9,199.3c-1.7-1.8-4.6,0.2-7.1-2.8c4.2,0.2,7.6-0.4,10.9,1.4c-0.5,2.1-2.1,1.6-3.3,1.9
		C166.2,199.7,166,199.5,165.9,199.3z"/>
	<path class="st4" d="M162,204.7c4.8,0,8.9,0,13,0C170.8,205.3,166.7,208.1,162,204.7z"/>
	<path class="st4" d="M114.7,200.8c1.9-0.9,3.8,0.8,5.8,0.8c1.1,0,2.4,0.6,2,2.2c-0.3,1.4-1.6,1.4-2.8,1.6c-0.3,0-0.6,0-0.9,0.1
		C121.6,199.8,114,204.4,114.7,200.8z"/>
	<path class="st4" d="M142.8,200.7c-1.5-0.6-3-1.1-3.9-3.1c2.1,0.1,3.5,0.9,4.4,2.5C143.2,200.3,143,200.5,142.8,200.7z"/>
	<path class="st4" d="M166.3,199.9c-1.1,0.9-2.3,1.9-4.1,1.3c0.9-1.5,2.2-1.8,3.7-1.8C166,199.5,166.2,199.7,166.3,199.9z"/>
	<path class="st4" d="M161.1,202.9c-0.1,0.3-0.3,0.7-0.5,1.1c-0.2-0.3-0.6-0.7-0.6-1c0-0.3,0.4-0.7,0.6-1
		C160.8,202.3,160.9,202.5,161.1,202.9z"/>
	<path class="st4" d="M135.3,195.2c0.6,0.4,1.3,0.7,1.9,1.1c-0.2,0.2-0.3,0.3-0.5,0.5c-0.6-0.4-1.3-0.7-1.9-1.1
		C135,195.5,135.1,195.4,135.3,195.2z"/>
	<path class="st4" d="M114.7,211.8c-0.4-0.2-1.4-0.2-0.9-0.9c0.4-0.6,1,0,1.3,0.5C115,211.5,114.9,211.7,114.7,211.8z"/>
	<path class="st4" d="M137.2,196.3c0.2,0.3,0.4,0.6,0.6,0.9c-0.4-0.1-0.7-0.3-1.1-0.4C136.9,196.6,137.1,196.5,137.2,196.3z"/>
	<path class="st4" d="M112.5,200.3c-0.1-0.1-0.2-0.2-0.3-0.3c0.1-0.1,0.2-0.3,0.3-0.3c0.1,0,0.2,0.2,0.3,0.3
		C112.8,200.1,112.6,200.2,112.5,200.3z"/>
	<path class="st4" d="M143.4,200.2c0.4,0.3,0.7,0.7,1.1,1c-0.2,0.2-0.4,0.4-0.6,0.6c-0.3-0.3-0.7-0.6-1-1
		C143,200.5,143.2,200.3,143.4,200.2z"/>
	<path class="st4" d="M144.4,201.1c0.1,0.3,0.2,0.7,0.4,1c-0.3-0.1-0.6-0.3-0.9-0.4C144,201.5,144.2,201.3,144.4,201.1z"/>
	<path class="st4" d="M115.2,211.4c0.2,0.3,0.4,0.5,0.6,0.8c-0.3-0.1-0.7-0.3-1-0.4C114.9,211.7,115,211.5,115.2,211.4z"/>
	<path class="st4" d="M134.2,194.3c0.4,0.3,0.7,0.6,1.1,0.9c-0.2,0.1-0.3,0.3-0.5,0.4c-0.4-0.3-0.7-0.6-1.1-0.9
		C133.9,194.6,134,194.5,134.2,194.3z"/>
	<path class="st4" d="M133.2,193.4c0.3,0.3,0.7,0.6,1,1c-0.2,0.2-0.3,0.3-0.5,0.5c-0.3-0.3-0.7-0.7-1-1
		C132.9,193.7,133,193.5,133.2,193.4z"/>
	<path class="st7" d="M136.4,72.8c3.3-3.4,5.3-1.6,7.2,1.7c3.2,5.4,3.3,5.3,8.4,1.9c1.3-0.9,3.3-3.9,4.8-1c1.3,2.5,5.3,5.1,1.5,8.6
		c-2.9,2.7-5.8,5.5-8.6,8.3c-1.2,1.2-2.7,2.4-4.3,2.1c-3.6-0.6-7.1-1.5-9.9,1.9c-0.1,0.1-0.4,0.1-0.5,0.1c-2-3.9-7.8-1.4-9.6-5.7
		c-1.1-2.4-2.4-4.8-3.5-7.2c-2.7-5.7-0.3-9.7,6.3-11c0,0,0,0,0,0c0,0.7,0.4,1,1,1l0,0c3.2,3.7,3.3,3.8,5.1,1l0,0
		c0.8,0.1,1.1-0.5,1.2-1.1C135.6,73.2,136,73,136.4,72.8z M138.9,78c-4.3-1.1-5.7-0.3-2.3,3.6c0.7,0.8,0.9,1.3-0.1,1.8
		c-0.5,0.3-2.2,0.5-0.2,1.1c2.7,0.8,3.2-2.4,5.2-3.3c0.9-0.4,1.8-1.7,1-2.9C141.5,76.7,140.1,77.9,138.9,78z"/>
	<path class="st9" d="M136.4,72.8c-0.4,0.2-0.8,0.4-1.1,0.6c-0.6,0.1-1.2,0.3-1.2,1.1c0,0,0,0,0,0c-1.7-0.5-3.2-1.6-5.1-1
		c0,0,0,0,0,0c0.1-0.8-0.3-1.1-1-1c0,0,0,0,0,0c-1.7-3.5-3-7,1.5-9.6c1.9-1.1,3.8-2.4,5.9-1c2.1,1.4,2.6,3.7,2.3,6.1
		C137.4,69.7,136.8,71.2,136.4,72.8z"/>
	<path class="st9" d="M155,69.1c-0.8,3.5-3.3,5.9-6.4,5.9c-3,0-4.4-3.2-4.6-6.2c-0.2-2.6,4-6.7,6.1-6.1
		C153,63.8,154.5,66.1,155,69.1z"/>
	<path class="st7" d="M132.5,54.6c-1.5-0.1-3.8,0.3-3.3-2.3c0.4-2.2,1.1-5.2,3.5-5.4c2.4-0.2,2.8,2.8,3.2,4.9
		C136.4,54.5,134.6,54.8,132.5,54.6z"/>
	<path class="st9" d="M157.8,51.4c2.3-0.2,3.3,0.7,2.8,2.2c-0.5,1.7-0.2,4.5-2.7,4.6c-2.1,0.1-4.5-1.5-4.4-3.7
		C153.6,52.2,156.6,52.1,157.8,51.4z"/>
	<path class="st8" d="M161.1,93.7c1.2,1.8,0.7,3.3-1.3,3.8c-3.8,1.1-7.7,2.3-11.8,1.1C152.2,96.4,157.2,96.6,161.1,93.7z"/>
	<path class="st2" d="M150,166.5c-1.5-0.1-3.7,2.6-4.4-1.2c-0.3-1.5-1.7-1.3-2.7-0.3c-1,1-2,2.1-3,3.1c-2.2-1-0.9-7-5.6-3.7
		c2-8,4-16,6-24c0,0,0.2-0.4,0.2-0.4c2.5-7.6,5-15.1,7.5-22.7c1.1-3.3,2.9-6.4,5.2-9c3-3.5,9-4.8,12.8-2.8c4.7,2.5,3.7,6.9,2.5,10.6
		c-2.3,7.3-5.3,14.3-8,21.4C156.7,147,152.7,156.5,150,166.5z"/>
	<path class="st8" d="M140.5,139.9c0,0-0.2,0.5-0.2,0.4c-9.9,0.1-19.7,0.3-29.2,3.1c2.1-3.6,6-3.6,9.2-3.8
		C126.9,139.2,133.7,139.1,140.5,139.9z"/>
	<path class="st8" d="M120,135.5c0.5-5.8,1-11.5,1.4-17.3c0.5,0,0.9,0.1,1.4,0.1C123.5,124.2,121.8,129.8,120,135.5z"/>
	<path class="st8" d="M145.2,115.4c-0.6-5.3,0.1-9.4,1.8-13.3C147,106.3,147.3,110.5,145.2,115.4z"/>
	<path class="st8" d="M163,146.6c-0.4-0.1-0.8-0.2-1.2-0.4c0.1-0.2,0.2-0.3,0.4-0.5c0.3,0.3,0.6,0.5,1,0.8L163,146.6z"/>
	<path class="st8" d="M163.1,146.5c0.3,0.3,0.7,0.7,1,1c0,0-0.1,0.1-0.1,0.1c-0.3-0.3-0.7-0.7-1-1
		C163,146.6,163.1,146.5,163.1,146.5z"/>
	<path class="st2" d="M82.9,114.6c-0.6-0.3-1-1-0.5-1.4c0.7-0.4,0.7,0.5,1.1,0.9C83.3,114.3,83.1,114.5,82.9,114.6z"/>
	<path class="st2" d="M84.7,109.8c-0.5-0.4-1-1.1-0.5-1.6c0.7-0.6,0.9,0.4,1.3,0.8C85.3,109.2,85,109.5,84.7,109.8z"/>
	<path class="st4" d="M138.9,78c1.2-0.2,2.5-1.3,3.5,0.3c0.8,1.3-0.1,2.5-1,2.9c-1.9,0.9-2.5,4.1-5.2,3.3c-2-0.6-0.3-0.8,0.2-1.1
		c1.1-0.6,0.8-1.1,0.1-1.8C133.3,77.8,134.7,76.9,138.9,78z"/>
	<path class="st3" d="M129,73.5c1.9-0.6,3.4,0.5,5.1,1C132.2,77.3,132.1,77.3,129,73.5z"/>
	<path class="st3" d="M134,74.6c0-0.8,0.6-1,1.2-1.1C135.1,74.1,134.8,74.6,134,74.6z"/>
	<path class="st3" d="M128,72.5c0.8-0.1,1.2,0.2,1,1C128.4,73.5,128,73.2,128,72.5z"/>
	<g>
		<polyline points="134.5,67.7 133.7,67.7 132.6,67.1 131.7,66.7 131.5,66.6 128.7,66.7 128.7,65.7 133.4,65.7 133.4,66.5 
			135.5,66.5 135.5,68.6 		"/>
		<line x1="134.7" y1="68.6" x2="134.5" y2="67.7"/>
		<line x1="135.5" y1="68.6" x2="134.7" y2="68.6"/>
		<line x1="133.7" y1="67.7" x2="133.7" y2="68.2"/>
		<polyline points="132.4,68.6 131.5,68.6 131.5,66.6 133.7,67.7 		"/>
		<line x1="133.7" y1="68.6" x2="132.4" y2="68.6"/>
		<line x1="133.7" y1="68.2" x2="133.7" y2="68.6"/>
		<polygon points="133.4,65.7 134,65.8 134.7,66.1 135.5,66.5 133.4,66.5 		"/>
	</g>
	<g>
		<polyline points="151,69.2 150.2,69.1 149.1,68.6 148.2,68.1 148,68.1 145.2,68.1 145.2,67.1 150,67.1 150,68 152.1,68 152.1,70 
					"/>
		<line x1="151.2" y1="70" x2="151" y2="69.2"/>
		<line x1="152.1" y1="70" x2="151.2" y2="70"/>
		<line x1="150.2" y1="69.1" x2="150.2" y2="69.7"/>
		<polyline points="148.9,70 148.1,70 148,68.1 150.2,69.1 		"/>
		<line x1="150.2" y1="70" x2="148.9" y2="70"/>
		<line x1="150.2" y1="69.7" x2="150.2" y2="70"/>
		<polygon points="150,67.1 150.6,67.3 151.2,67.5 152.1,68 150,68 		"/>
	</g>
	<polygon points="61.8,87.7 62.3,88.8 63.3,89.5 64.6,90 65.3,90 66.5,90 65.8,91 64.2,91.2 62.1,90.5 61.4,89.5 61.4,88.2 	"/>
	<polygon points="58.6,93.7 57,93.7 55.7,92.8 55.4,92 55.4,91.2 56.3,90.6 57.3,90.6 58.6,91.2 59.5,91.6 60.2,92.2 60.2,93.2 	"/>
	<polygon points="55.8,97.5 55.8,96.8 56.5,96.3 57.1,96.3 57.8,96.3 58.5,96.3 59.1,96.9 59.1,97.5 58.3,97.5 56.5,97.5 	"/>
	<polygon points="131.5,80.5 133.7,84.8 138,82.6 141.8,84.8 146.3,80.5 146.3,82.6 142.5,86.3 138.9,84.8 134.6,86.3 131.5,82.3 	
		"/>
	<polygon points="131.5,80.3 133.7,84.8 138,82.6 142,84.8 146,80.8 146.3,80.5 146.6,80.5 146.7,80.8 146.7,81.1 146.7,81.8 
		146.5,82.5 142.5,86.3 138.9,84.8 134.6,86.3 134,86.3 133.3,86.1 131.5,83.7 130.6,81.5 130.7,80.3 131,80 	"/>
	<polygon class="st10" points="136.9,83.2 137.2,82.7 137.2,82.4 136.4,81.4 135.5,80.3 135,79.4 134.8,78.4 135,77.9 135.5,77.6 
		136,77.6 137,77.6 138.2,77.9 139,78.1 140.3,77.6 141,77.5 141.4,77.5 142,77.8 142.3,78.2 142.6,78.8 142.6,79.6 142.5,80.3 
		142.1,80.7 141.6,81.1 141.1,81.4 140.6,81.8 140,82.4 139.3,83.4 138,82.6 	"/>
</g>
<g id="Capa_2" class="st11">
	
		<image style="display:inline;overflow:visible;" width="500" height="500" xlink:href="171421714_577114956591617_766346266991852801_n - copia.png"  transform="matrix(1 0 0 1 -159.9832 -120.737)">
	</image>
	<polygon class="st12" points="95.2,65.3 99.9,65.3 99.9,66.2 102.1,66.2 102.1,68.2 101.2,68.2 101,67.4 100.2,67.3 99.1,66.8 
		98.2,66.4 98,66.3 95.2,66.3 	"/>
	<polygon class="st12" points="98,68.2 98,66.3 100.2,67.3 100.2,68.2 	"/>
	<polygon class="st12" points="131.2,73.3 135.9,73.3 135.9,74.2 138.1,74.2 138.1,76.2 137.2,76.2 137,75.4 136.2,75.3 135.1,74.8 
		134.2,74.4 134,74.3 131.2,74.3 	"/>
	<polygon class="st12" points="134,76.2 134,74.3 136.2,75.3 136.2,76.2 	"/>
	<polygon class="st12" points="131.2,73.3 135.9,73.3 135.9,74.2 138.1,74.2 138.1,76.2 137.2,76.2 137,75.4 136.2,75.3 135.1,74.8 
		134.2,74.4 134,74.3 131.2,74.3 	"/>
	<polygon class="st12" points="134,76.2 134,74.3 136.2,75.3 136.2,76.2 	"/>
	<rect x="22.3" y="94.4" class="st12" width="3.8" height="0.9"/>
	<polygon class="st12" points="22.3,92.3 26.1,92.3 26.1,91.3 25.1,91.3 25.1,90.3 22.3,90.3 	"/>
	<polyline class="st12" points="26.1,86.5 27.8,86.5 28.1,87.1 28.9,87.5 28.9,88.1 31.9,88.1 31.9,90.1 30.1,90.3 29,90.3 29,89.1 
		28.1,89.3 28.1,88.4 27.1,88.4 27.1,87.5 	"/>
</g>
</svg>
